{
    "accessors" : [
        {
            "bufferView" : 0,
            "componentType" : 5123,
            "count" : 3588,
            "max" : [
                888
            ],
            "min" : [
                0
            ],
            "type" : "SCALAR"
        },
        {
            "bufferView" : 1,
            "componentType" : 5126,
            "count" : 889,
            "max" : [
                9.539332389831543,
                31.44898796081543,
                31.386930465698242
            ],
            "min" : [
                -9.539332389831543,
                -31.44899559020996,
                -31.386934280395508
            ],
            "type" : "VEC3"
        },
        {
            "bufferView" : 2,
            "componentType" : 5126,
            "count" : 889,
            "max" : [
                1.0,
                0.999237060546875,
                0.9972533583641052
            ],
            "min" : [
                -1.0,
                -0.999237060546875,
                -0.9972533583641052
            ],
            "type" : "VEC3"
        },
        {
            "bufferView" : 3,
            "componentType" : 5126,
            "count" : 889,
            "max" : [
                1.0,
                5.4989013671875
            ],
            "min" : [
                0.0,
                -4.4989013671875
            ],
            "type" : "VEC2"
        }
    ],
    "asset" : {
        "generator" : "Khronos Blender glTF 2.0 exporter",
        "version" : "2.0"
    },
    "bufferViews" : [
        {
            "buffer" : 0,
            "byteLength" : 7176,
            "byteOffset" : 0,
            "target" : 34963
        },
        {
            "buffer" : 0,
            "byteLength" : 10668,
            "byteOffset" : 7176,
            "target" : 34962
        },
        {
            "buffer" : 0,
            "byteLength" : 10668,
            "byteOffset" : 17844,
            "target" : 34962
        },
        {
            "buffer" : 0,
            "byteLength" : 7112,
            "byteOffset" : 28512,
            "target" : 34962
        }
    ],
    "buffers" : [
        {
            "byteLength" : 35624,
            "uri" : "tire.bin"
        }
    ],
    "meshes" : [
        {
            "name" : "Tire",
            "primitives" : [
                {
                    "attributes" : {
                        "NORMAL" : 2,
                        "POSITION" : 1,
                        "TEXCOORD_0" : 3
                    },
                    "indices" : 0
                }
            ]
        }
    ],
    "nodes" : [
        {
            "name" : "Area",
            "rotation" : [
                -0.23015053570270538,
                0.0,
                -0.0,
                0.9731550812721252
            ],
            "scale" : [
                1.0,
                0.9999999403953552,
                0.9999999403953552
            ],
            "translation" : [
                0.15881240367889404,
                56.208282470703125,
                -29.900367736816406
            ]
        },
        {
            "name" : "Ship.000",
            "rotation" : [
                0.7071068286895752,
                0.0,
                -0.0,
                0.7071068286895752
            ],
            "translation" : [
                -6.997179985046387,
                11.295913696289062,
                28.633644104003906
            ]
        },
        {
            "name" : "Ship.001",
            "rotation" : [
                0.7071068286895752,
                0.0,
                -0.0,
                0.7071068286895752
            ],
            "translation" : [
                -2.7067294120788574,
                8.027138710021973,
                30.266366958618164
            ]
        },
        {
            "name" : "Ship.002",
            "rotation" : [
                0.7071068286895752,
                0.0,
                -0.0,
                0.7071068286895752
            ],
            "translation" : [
                -1.307237982749939,
                9.226168632507324,
                29.99102020263672
            ]
        },
        {
            "name" : "Ship.003",
            "rotation" : [
                0.7071068286895752,
                0.0,
                -0.0,
                0.7071068286895752
            ],
            "translation" : [
                -5.164183139801025,
                9.279160499572754,
                29.588871002197266
            ]
        },
        {
            "name" : "Ship.004",
            "rotation" : [
                0.7071068286895752,
                0.0,
                -0.0,
                0.7071068286895752
            ],
            "translation" : [
                -6.9656291007995605,
                6.051027297973633,
                30.127361297607422
            ]
        },
        {
            "name" : "Ship.005",
            "rotation" : [
                0.7071068286895752,
                0.0,
                -0.0,
                0.7071068286895752
            ],
            "translation" : [
                1.3428292274475098,
                7.719966411590576,
                30.46444320678711
            ]
        },
        {
            "name" : "Ship.006",
            "rotation" : [
                0.7071068286895752,
                0.0,
                -0.0,
                0.7071068286895752
            ],
            "translation" : [
                2.7839019298553467,
                9.276751518249512,
                29.854135513305664
            ]
        },
        {
            "name" : "Ship.007",
            "rotation" : [
                0.7071068286895752,
                0.0,
                -0.0,
                0.7071068286895752
            ],
            "translation" : [
                4.237881183624268,
                8.469186782836914,
                29.568119049072266
            ]
        },
        {
            "name" : "Ship.008",
            "rotation" : [
                0.7071068286895752,
                0.0,
                -0.0,
                0.7071068286895752
            ],
            "translation" : [
                5.193489074707031,
                7.791909694671631,
                30.06753158569336
            ]
        },
        {
            "name" : "Ship.009",
            "rotation" : [
                0.7071068286895752,
                0.0,
                -0.0,
                0.7071068286895752
            ],
            "translation" : [
                7.011221885681152,
                7.285914897918701,
                29.884563446044922
            ]
        },
        {
            "name" : "Ship.010",
            "rotation" : [
                0.7071068286895752,
                0.0,
                -0.0,
                0.7071068286895752
            ],
            "translation" : [
                3.9792017936706543,
                5.409181594848633,
                30.6969051361084
            ]
        },
        {
            "mesh" : 0,
            "name" : "Tire",
            "rotation" : [
                -5.338508657359853e-08,
                0.7071068286895752,
                0.7071068286895752,
                -5.338508657359853e-08
            ]
        }
    ],
    "scene" : 0,
    "scenes" : [
        {
            "name" : "Scene",
            "nodes" : [
                11,
                10,
                9,
                8,
                7,
                6,
                1,
                4,
                5,
                2,
                3,
                0,
                12
            ]
        }
    ]
}
